<svg id="Layer_1" data-name="Layer 1" xmlns="http://www.w3.org/2000/svg" xmlns:xlink="http://www.w3.org/1999/xlink"
  viewBox="0 0 595.28 595.28">
  <defs>
    <style>
      .cls-1 {
        font-size: 59.82px;
        font-family: SVN-EveryMovieEveryNight, SVN-Every Movie Every Night;
      }

      .cls-1,
      .cls-15 {
        fill: #35a8e0;
      }

      .cls-2 {
        fill: #2b3990;
      }

      .cls-3,
      .cls-4 {
        fill: #1e439b;
      }

      .cls-3 {
        letter-spacing: 0em;
      }

      .cls-4 {
        font-size: 32.87px;
        font-family: BeVietnamPro-Italic, Be Vietnam Pro;
        font-style: italic;
      }

      .cls-5 {
        letter-spacing: -0.09em;
      }

      .cls-6 {
        letter-spacing: 0em;
      }

      .cls-7 {
        letter-spacing: -0.02em;
      }

      .cls-8 {
        letter-spacing: 0em;
      }

      .cls-9 {
        letter-spacing: -0.09em;
      }

      .cls-10 {
        fill: url(#radial-gradient);
      }

      .cls-11 {
        fill: #fff;
      }

      .cls-12 {
        fill: url(#radial-gradient-2);
      }

      .cls-13 {
        fill: url(#radial-gradient-3);
      }

      .cls-14 {
        fill: url(#radial-gradient-4);
      }
    </style>
    <radialGradient id="radial-gradient" cx="347.02" cy="182.3" r="95.24"
      gradientTransform="matrix(1, -0.01, 0.01, 1, -0.92, 7.78)" gradientUnits="userSpaceOnUse">
      <stop offset="0.12" stop-color="#29abe2"></stop>
      <stop offset="0.46" stop-color="#1fa1db"></stop>
      <stop offset="1" stop-color="#034ea2"></stop>
    </radialGradient>
    <radialGradient id="radial-gradient-2" cx="340.29" cy="284.15" r="57.12"
      gradientTransform="matrix(1, 0, 0, 1, 0, 0)" xlink:href="#radial-gradient"></radialGradient>
    <radialGradient id="radial-gradient-3" cx="280.15" cy="243.3" r="93.63" gradientTransform="matrix(1, 0, 0, 1, 0, 0)"
      xlink:href="#radial-gradient"></radialGradient>
    <radialGradient id="radial-gradient-4" cx="289.52" cy="247.49" r="100.37"
      gradientTransform="matrix(1, 0, 0, 1, 0, 0)" xlink:href="#radial-gradient"></radialGradient>
  </defs>
  <title>ThaoNguyen 1</title><text class="cls-1" transform="translate(113.61 429.79)">THAO<tspan class="cls-2"
      x="144.29" y="0"></tspan>
    <tspan class="cls-3" x="159.13" y="0">NGUYEN</tspan>
  </text><text class="cls-4" transform="translate(154.54 472.51)">Có <tspan class="cls-5" x="51.83" y="0">T</tspan>
    <tspan class="cls-6" x="71.22" y="0">âm </tspan>
    <tspan class="cls-7" x="129.03" y="0">ắ</tspan>
    <tspan class="cls-8" x="148.81" y="0">t có </tspan>
    <tspan class="cls-9" x="216.55" y="0">T</tspan>
    <tspan x="235.94" y="0">ầm</tspan>
  </text>
  <path class="cls-10"
    d="M387.35,192.55a161.8,161.8,0,0,0-30.46-27.07S301,122.73,300,65.24c0,0-17.6,30.82-6.61,62.58,0,0,10-19.67,17.55-7.75.76,1.72,1.55,3.45,2.42,5.21h0c7.4,15.06,18.77,31.41,36.19,47.15,0,0,20.93,15.84,30.95,31.36,0,0,31.92,42.39,6.63,104.35C387.09,308.15,429.06,249.07,387.35,192.55Z">
  </path>
  <path class="cls-11" d="M323.49,187.65l14,7.44-7-2-8.34-2.08-2.49-4.86Z"></path>
  <path class="cls-12"
    d="M388.08,247.58c-2.51-16.52-8.33-27.43-8.33-27.43.23.84.44,1.65.66,2.48,2.24,8.91,8.88,40.39-1.1,66.93a76,76,0,0,1-6,11.9c-.4.65-.81,1.28-1.22,1.91a.41.41,0,0,0-.07.11,77,77,0,0,1-5.2,6.94c-9.66,11.26-32.94,31.52-70.76,23.4-.43-.11-.83-.25-1.25-.36-1.41,5.13-2.71,9.62-3.83,13.13.64.12,1.28.26,1.91.37h0s87.56,16.89,96.5-76.44A97.51,97.51,0,0,0,388.08,247.58Z">
  </path>
  <path class="cls-13"
    d="M301.66,216.66c3.55-.63,4.69.76,4,4.41-.08.42-.18.85-.34,1.64,4.31-.85,8.37-1.76,12.47-2.45,1.72-.29,3.43-.55,5.14-.8l13.81-.24c4-.08,8.41,0,11.66,2.42a5.82,5.82,0,0,1,1.6,1.75,6.34,6.34,0,0,1,.33,4.8,7,7,0,0,1-3.17,3.92,17.13,17.13,0,0,0,10.05-1.43,21,21,0,0,0,6.53-5.48c.4-.51.81-1.1.81-1.1.79-1.1,1.21-1.84,1.53-2.37a12.2,12.2,0,0,1-1.67.18,13,13,0,0,1-1.91-.06A41.85,41.85,0,0,0,352,215a41.37,41.37,0,0,0-15-3.67,35.71,35.71,0,0,1,5.67.25,36.39,36.39,0,0,1,17.31,7c1.17.89,2.07,1.68,2.64,2.2a13.24,13.24,0,0,0,2.79-.24,12.94,12.94,0,0,0,3.17-1.05,4.09,4.09,0,0,0,1.34-1c1.9-2.3.4-6.59-.35-8.72a20.17,20.17,0,0,0-6-8.62l.42,4.45c-1.1-.16-2.24-.38-3.41-.67a40.11,40.11,0,0,1-16-8.27c.6-.82,1.26-1.66,2-2.53.54-.63,1.08-1.23,1.6-1.79-19.3-11.12-27.35-15.21-30.74-16.57l-.86-.31a11.64,11.64,0,0,1-3.86-2.3,74.92,74.92,0,0,1-5.51-6.13l-1.12,1.94-4.39-4.13-1.17,1.42c-1.42-1-2.92-2-4.49-2.95l-5.67-5.07-1.42,1c-2-1.06-4.13-2.08-6.35-3.06l-3.8-3a6.29,6.29,0,0,0-.85,1.07A110.22,110.22,0,0,0,232.4,147a124.58,124.58,0,0,1,47.43,18.82A108.86,108.86,0,0,0,218,150.64a124.41,124.41,0,0,1,46.44,18.18,40.66,40.66,0,0,0-10.18.3c-7.14,1.11-14.42,1.09-21.3-1.77-2.71-1.13-5.22-2.77-8.35-4.46,4.95,8.08,11.69,13,20.43,16.65a132.19,132.19,0,0,1-28.61,1.54c-9.16-.57-18.28-1.87-27-2.81,15.18,10.32,32.55,15.92,51.93,17.7a46.08,46.08,0,0,0-20.83,3.27,46.68,46.68,0,0,0-12.45,7.57A96.07,96.07,0,0,1,221,204.74a94.69,94.69,0,0,1,12-.33,58.3,58.3,0,0,0-17,5.34A59.13,59.13,0,0,0,199.37,222a34.5,34.5,0,0,1,20.46,1.87,33.13,33.13,0,0,0-28.24,28.31,30.54,30.54,0,0,1,14.72-8.07,29.69,29.69,0,0,1,12.55,0,44.71,44.71,0,0,0-11,10.75,46.22,46.22,0,0,0-7.94,19c2.34-1.69,5-3.42,7.9-5.13s5.84-3.2,8.49-4.42a42.5,42.5,0,0,0-6.7,35l9.41-17.41a69.63,69.63,0,0,0,9.5,27.06c.12-.33,1.33-10.05,1.45-10.38,1.06,4.12,4.24,11.54,9.62,19h0a105.24,105.24,0,0,0,17.09,15.72h0l.07.05a121.46,121.46,0,0,0,12.65,6.54c1.42-4.82,3-10.63,4.67-17-19.15-15.54-24.51-39.67-25-42.23-6.35-43.42,19.63-60.83,19.63-60.83.65-.46,1.26-.87,1.85-1.26l.16-.1a38.43,38.43,0,0,1,6.45-3.32c3.9-1.58,6.69-1.58,8.46,0a23.47,23.47,0,0,0-6.36-14.41c1.22.87,8.26,6.08,9.1,15.16a19.59,19.59,0,0,1-.42,6.12l0,.59c2.63-1.34,5.11-2.74,7.69-3.88A26.76,26.76,0,0,1,301.66,216.66Zm20.86-30.14,15.43,8.2-7.76-2.16-9.21-2.3-2.74-5.36Z">
  </path>
  <path class="cls-14"
    d="M388.08,247.58c-2.51-16.52-8.33-27.43-8.33-27.43.23.84.44,1.65.66,2.48,2.24,8.91,8.88,40.39-1.1,66.93a76,76,0,0,1-6,11.9c-.4.65-.81,1.28-1.22,1.91a.41.41,0,0,0-.07.11,77,77,0,0,1-5.2,6.94c-9.66,11.26-32.94,31.52-70.76,23.4-.43-.11-.83-.25-1.25-.36-1.41,5.13-2.71,9.62-3.83,13.13.64.12,1.28.26,1.91.37h0s87.56,16.89,96.5-76.44A97.51,97.51,0,0,0,388.08,247.58Z">
  </path>
  <path class="cls-14"
    d="M301.66,216.66c3.55-.63,4.69.76,4,4.41-.08.42-.18.85-.34,1.64,4.31-.85,8.37-1.76,12.47-2.45,1.72-.29,3.43-.55,5.14-.8l13.81-.24c4-.08,8.41,0,11.66,2.42a5.82,5.82,0,0,1,1.6,1.75,6.34,6.34,0,0,1,.33,4.8,7,7,0,0,1-3.17,3.92,17.13,17.13,0,0,0,10.05-1.43,21,21,0,0,0,6.53-5.48c.4-.51.81-1.1.81-1.1.79-1.1,1.21-1.84,1.53-2.37a12.2,12.2,0,0,1-1.67.18,13,13,0,0,1-1.91-.06A41.85,41.85,0,0,0,352,215a41.37,41.37,0,0,0-15-3.67,35.71,35.71,0,0,1,5.67.25,36.39,36.39,0,0,1,17.31,7c1.17.89,2.07,1.68,2.64,2.2a13.24,13.24,0,0,0,2.79-.24,12.94,12.94,0,0,0,3.17-1.05,4.09,4.09,0,0,0,1.34-1c1.9-2.3.4-6.59-.35-8.72a20.17,20.17,0,0,0-6-8.62l.42,4.45c-1.1-.16-2.24-.38-3.41-.67a40.11,40.11,0,0,1-16-8.27c.6-.82,1.26-1.66,2-2.53.54-.63,1.08-1.23,1.6-1.79-19.3-11.12-27.35-15.21-30.74-16.57l-.86-.31a11.64,11.64,0,0,1-3.86-2.3,74.92,74.92,0,0,1-5.51-6.13l-1.12,1.94-4.39-4.13-1.17,1.42c-1.42-1-2.92-2-4.49-2.95l-5.67-5.07-1.42,1c-2-1.06-4.13-2.08-6.35-3.06l-3.8-3a6.29,6.29,0,0,0-.85,1.07A110.22,110.22,0,0,0,232.4,147a124.58,124.58,0,0,1,47.43,18.82A108.86,108.86,0,0,0,218,150.64a124.41,124.41,0,0,1,46.44,18.18,40.66,40.66,0,0,0-10.18.3c-7.14,1.11-14.42,1.09-21.3-1.77-2.71-1.13-5.22-2.77-8.35-4.46,4.95,8.08,11.69,13,20.43,16.65a132.19,132.19,0,0,1-28.61,1.54c-9.16-.57-18.28-1.87-27-2.81,15.18,10.32,32.55,15.92,51.93,17.7a46.08,46.08,0,0,0-20.83,3.27,46.68,46.68,0,0,0-12.45,7.57A96.07,96.07,0,0,1,221,204.74a94.69,94.69,0,0,1,12-.33,58.3,58.3,0,0,0-17,5.34A59.13,59.13,0,0,0,199.37,222a34.5,34.5,0,0,1,20.46,1.87,33.13,33.13,0,0,0-28.24,28.31,30.54,30.54,0,0,1,14.72-8.07,29.69,29.69,0,0,1,12.55,0,44.71,44.71,0,0,0-11,10.75,46.22,46.22,0,0,0-7.94,19c2.34-1.69,5-3.42,7.9-5.13s5.84-3.2,8.49-4.42a42.5,42.5,0,0,0-6.7,35l9.41-17.41a69.63,69.63,0,0,0,9.5,27.06c.12-.33,1.33-10.05,1.45-10.38,1.06,4.12,4.24,11.54,9.62,19h0a105.24,105.24,0,0,0,17.09,15.72h0l.07.05a121.46,121.46,0,0,0,12.65,6.54c1.42-4.82,3-10.63,4.67-17-19.15-15.54-24.51-39.67-25-42.23-6.35-43.42,19.63-60.83,19.63-60.83.65-.46,1.26-.87,1.85-1.26l.16-.1a38.43,38.43,0,0,1,6.45-3.32c3.9-1.58,6.69-1.58,8.46,0a23.47,23.47,0,0,0-6.36-14.41c1.22.87,8.26,6.08,9.1,15.16a19.59,19.59,0,0,1-.42,6.12l0,.59c2.63-1.34,5.11-2.74,7.69-3.88A26.76,26.76,0,0,1,301.66,216.66Zm20.86-30.14,15.43,8.2-7.76-2.16-9.21-2.3-2.74-5.36Z">
  </path>
  <path class="cls-2"
    d="M356.25,258.7c.27.19.37.37.27.46l-15.7,64.09h-9.69l-9.61-46.68-11.64,46.68h-8.26l15.7-64.09a3.39,3.39,0,0,0,.82-.46,7.3,7.3,0,0,1,2.94-.46,10.35,10.35,0,0,1,3.31.46,8.89,8.89,0,0,0,1.19.46l10,51.88,12.67-51.88,1.1-.46a11.29,11.29,0,0,1,3.68-.46C355,258.24,355.88,258.43,356.25,258.7Z">
  </path>
  <path class="cls-15"
    d="M347.44,239.61a28.37,28.37,0,0,1-1.92,11.15,9.59,9.59,0,0,1-1.92,3H310.5c-6.27,27.53-21.43,91.29-25.44,98.09C281.41,359.3,272.17,363,265,363c-10.28,0-15.16-7.14-17.77-14.29-1.57-4.18-2.5-10.59-2.67-16l7.07,5.82a23.91,23.91,0,0,0,1.35,5.82c1.56,5.05,4.18,10.1,8.88,10.1,3.31,0,7.67-2.61,9.76-9.06,6.45-20.38,17.6-68.64,23.17-91.64h-8.71c-9.24,0-13.76,5.23-16,10.28a30.63,30.63,0,0,0-2.26,10.28H261.2A47.91,47.91,0,0,1,265,257c3.66-8.88,11.32-17.42,26.48-17.42Z">
  </path>
</svg>